<?xml version="1.0" encoding="utf-8"?>
<!-- Generator: Adobe Illustrator 19.2.1, SVG Export Plug-In . SVG Version: 6.00 Build 0)  -->
<svg version="1.1" id="Layer_1" xmlns="http://www.w3.org/2000/svg" xmlns:xlink="http://www.w3.org/1999/xlink" x="0px" y="0px"
	 viewBox="0 0 30 30" style="enable-background:new 0 0 30 30;" xml:space="preserve">
<style type="text/css">
	.st0{fill:#D9B195;}
</style>
<title>Medal</title>
<desc>Created with Sketch.</desc>
<g id="Mobile">
	<g id="Mobile---Medal-Tracker" transform="translate(-203.000000, -266.000000)">
		<g id="Medal" transform="translate(203.000000, 266.000000)">
			<g id="Page-1-Copy-2">
				<path id="Fill-1" class="st0" d="M27,16.7c0.1-0.8,0.9-2.2,0.8-3c-0.1-0.8-1.2-2-1.5-2.7c-0.3-0.7-0.3-2.4-0.7-3
					c-0.4-0.6-2-1.2-2.6-1.7c-0.6-0.5-1.4-2-2-2.3c-0.7-0.4-2.3-0.2-3.1-0.4c-0.8-0.2-2.1-1.1-2.9-1.1s-2.1,1-2.9,1.1
					c-0.8,0.1-2.4,0-3.1,0.4C8.3,4.2,7.5,5.6,7,6.2C6.4,6.7,4.8,7.3,4.4,7.9c-0.4,0.6-0.4,2.3-0.7,3c-0.3,0.7-1.4,2-1.5,2.7
					c-0.1,0.8,0.7,2.2,0.8,3c0.1,0.8-0.3,2.4,0,3.1c0.3,0.7,1.6,1.7,2.1,2.3c0.4,0.6,0.8,2.2,1.4,2.8C7,25.4,8.7,25.6,9.4,26
					c0.7,0.4,1.8,1.6,2.5,1.8c0.8,0.2,2.3-0.4,3.1-0.4s2.3,0.6,3.1,0.4c0.8-0.2,1.9-1.4,2.5-1.8c0.7-0.4,2.3-0.6,2.9-1.1
					c0.6-0.5,1-2.1,1.4-2.8c0.4-0.6,1.8-1.6,2.1-2.3C27.3,19.1,27,17.5,27,16.7L27,16.7z M15,23.9c-4.9,0-8.9-4-8.9-8.9
					s4-8.9,8.9-8.9s8.9,4,8.9,8.9C23.9,20,19.9,23.9,15,23.9L15,23.9z"/>
				<path id="Fill-3" class="st0" d="M15,7.5c-4.2,0-7.6,3.4-7.6,7.6s3.4,7.6,7.6,7.6s7.6-3.4,7.6-7.6C22.6,10.9,19.2,7.5,15,7.5
					L15,7.5z M9.7,11.8h10.5v1.1H9.7V11.8z M20.3,18.4H9.7v-1.1h10.5V18.4z M21.8,15.6H8.2v-1.1h13.5V15.6z"/>
			</g>
		</g>
	</g>
</g>
</svg>
